<svg width="31" height="20" viewBox="0 0 31 20" fill="none" xmlns="http://www.w3.org/2000/svg">
<path d="M20.1139 2.04932H10.8906V17.1136H20.1139V2.04932Z" fill="#FF5F00"/>
<path d="M11.8413 9.5829C11.8402 8.13235 12.169 6.70053 12.8029 5.39582C13.4368 4.09111 14.3592 2.94769 15.5003 2.05209C14.087 0.941418 12.3898 0.250758 10.6026 0.0590449C8.81536 -0.132669 7.01026 0.182299 5.39358 0.967951C3.77691 1.7536 2.41388 2.97824 1.46028 4.5019C0.506675 6.02556 0.000976563 7.78677 0.000976562 9.58424C0.000976562 11.3817 0.506675 13.1429 1.46028 14.6666C2.41388 16.1902 3.77691 17.4149 5.39358 18.2005C7.01026 18.9862 8.81536 19.3011 10.6026 19.1094C12.3898 18.9177 14.087 18.2271 15.5003 17.1164C14.3589 16.2205 13.4363 15.0767 12.8023 13.7715C12.1684 12.4662 11.8398 11.0339 11.8413 9.5829Z" fill="#EB001B"/>
<path d="M30.085 15.5195V15.2108H30.218V15.147H29.9014V15.2108H30.0264V15.5195H30.085ZM30.6997 15.5195V15.147H30.6039L30.4921 15.4131L30.3804 15.147H30.2846V15.5195H30.3537V15.2374L30.4575 15.4796H30.5294L30.6332 15.2374V15.5195H30.6997Z" fill="#F79E1B"/>
<path d="M30.9997 9.58277C30.9997 11.3804 30.4939 13.1417 29.5401 14.6654C28.5863 16.1891 27.2231 17.4137 25.6062 18.1993C23.9893 18.9848 22.1841 19.2996 20.3967 19.1076C18.6094 18.9156 16.9122 18.2246 15.499 17.1136C16.6396 16.2172 17.5618 15.0734 18.1958 13.7687C18.8299 12.4639 19.1594 11.0321 19.1594 9.58144C19.1594 8.13074 18.8299 6.69899 18.1958 5.39421C17.5618 4.08942 16.6396 2.94569 15.499 2.04929C16.9122 0.938273 18.6094 0.247277 20.3967 0.055288C22.1841 -0.136701 23.9893 0.178064 25.6062 0.963604C27.2231 1.74914 28.5863 2.97376 29.5401 4.49747C30.4939 6.02118 30.9997 7.7825 30.9997 9.5801V9.58277Z" fill="#F79E1B"/>
</svg>
