<svg width="51" height="51" viewBox="0 0 51 51" fill="none" xmlns="http://www.w3.org/2000/svg">
<path d="M51 38.6485C51 32.7866 46.9151 27.8819 41.4375 26.6169C40.5405 26.41 39.6082 26.2969 38.6484 26.2969C38.3802 26.2969 38.1153 26.3085 37.8515 26.3252C31.8658 26.7069 27.0411 31.3495 26.3774 37.254C26.326 37.7118 26.2969 38.1767 26.2969 38.6485C26.2969 39.537 26.3929 40.4028 26.571 41.2383C27.7615 46.816 32.7153 51 38.6484 51C45.47 51 51 45.4701 51 38.6485ZM38.6484 46.8165C34.1373 46.8165 30.4804 43.1595 30.4804 38.6485C30.4804 34.1374 34.1373 30.4805 38.6484 30.4805C43.1595 30.4805 46.8164 34.1374 46.8164 38.6485C46.8164 43.1595 43.1595 46.8165 38.6484 46.8165Z" fill="#0768F6"/>
<path d="M40.2421 33.0703H37.4531V37.4531H33.0703V40.2421H40.2421V37.4531V33.0703Z" fill="#0768F6"/>
<path d="M9.16403 0C8.39503 0 7.76953 0.625583 7.76953 1.3945V4.582V7.96875C7.76953 8.73775 8.39503 9.36325 9.16403 9.36325H10.3594C11.1284 9.36325 11.7539 8.73767 11.7539 7.96875V4.582V1.3945C11.7539 0.625583 11.1284 0 10.3593 0H9.16403Z" fill="#0768F6"/>
<path d="M31.0781 0C30.3091 0 29.6836 0.625583 29.6836 1.3945V4.582V7.96875C29.6836 8.73775 30.3092 9.36325 31.0781 9.36325H32.2734C33.0424 9.36325 33.6679 8.73767 33.6679 7.96875V4.582V1.3945C33.6679 0.625583 33.0423 0 32.2733 0H31.0781Z" fill="#0768F6"/>
<path d="M3.1875 41.2383H22.9102C22.7157 40.2716 22.6125 39.2728 22.6125 38.25C22.6125 37.9149 22.6273 37.5834 22.6488 37.2539H5.97658C4.65617 37.2539 3.58592 36.1837 3.58592 34.8633V15.7383H37.8516V23.1305C38.1153 23.1169 38.3811 23.1094 38.6484 23.1094C39.6015 23.1094 40.5326 23.2019 41.4375 23.3712V7.76953C41.4375 6.0092 40.0103 4.58203 38.25 4.58203H35.6602V7.96878C35.6602 9.83628 34.141 11.3555 32.2734 11.3555H31.0781C29.2106 11.3555 27.6913 9.83628 27.6913 7.96878V4.58203H13.7461V7.96878C13.7461 9.83628 12.2268 11.3555 10.3593 11.3555H9.164C7.2965 11.3555 5.77725 9.83628 5.77725 7.96878V4.58203H3.1875C1.42717 4.58203 0 6.00928 0 7.76953V38.0508C0 39.8111 1.42717 41.2383 3.1875 41.2383Z" fill="#0768F6"/>
<path d="M11.2312 24.8774C12.978 24.8774 14.394 23.4614 14.394 21.7146C14.394 19.9678 12.978 18.5518 11.2312 18.5518C9.48441 18.5518 8.06836 19.9678 8.06836 21.7146C8.06836 23.4614 9.48441 24.8774 11.2312 24.8774Z" fill="#0768F6"/>
<path d="M20.719 24.8774C22.4658 24.8774 23.8818 23.4614 23.8818 21.7146C23.8818 19.9678 22.4658 18.5518 20.719 18.5518C18.9722 18.5518 17.5562 19.9678 17.5562 21.7146C17.5562 23.4614 18.9722 24.8774 20.719 24.8774Z" fill="#0768F6"/>
<path d="M30.2063 24.8774C31.9531 24.8774 33.3691 23.4614 33.3691 21.7146C33.3691 19.9678 31.9531 18.5518 30.2063 18.5518C28.4595 18.5518 27.0435 19.9678 27.0435 21.7146C27.0435 23.4614 28.4595 24.8774 30.2063 24.8774Z" fill="#0768F6"/>
<path d="M20.7189 34.4398C22.4656 34.4398 23.8817 33.0237 23.8817 31.277C23.8817 29.5303 22.4656 28.1143 20.7189 28.1143C18.9722 28.1143 17.5562 29.5303 17.5562 31.277C17.5562 33.0237 18.9722 34.4398 20.7189 34.4398Z" fill="#0768F6"/>
<path d="M11.2311 34.4398C12.9778 34.4398 14.3939 33.0237 14.3939 31.277C14.3939 29.5303 12.9778 28.1143 11.2311 28.1143C9.48437 28.1143 8.06836 29.5303 8.06836 31.277C8.06836 33.0237 9.48437 34.4398 11.2311 34.4398Z" fill="#0768F6"/>
</svg>
