<svg width="63" height="63" viewBox="0 0 63 63" fill="none" xmlns="http://www.w3.org/2000/svg">
<path d="M32.5191 51.0292H29.4763C27.3333 51.0292 25.5918 52.7708 25.5918 54.9137V59.1154C25.5918 61.2584 27.3333 62.9999 29.4763 62.9999H32.5191C34.6622 62.9999 36.4036 61.2584 36.4036 59.1154V54.9137C36.4036 52.7644 34.6622 51.0292 32.5191 51.0292Z" fill="#DD0707"/>
<path d="M11.0633 18.5031L16.6764 19.2023C18.4568 19.4225 20.1466 18.3995 20.7875 16.7227C21.5968 14.6057 22.7233 12.9354 24.167 11.7182C26.2129 9.99609 28.7572 9.12856 31.8001 9.12856C34.953 9.12856 37.4649 9.95725 39.3295 11.6082C41.194 13.2655 42.1199 15.2466 42.1199 17.5709C42.1199 19.2412 41.5954 20.7691 40.5466 22.1546C39.8668 23.035 37.7757 24.8867 34.2861 27.7159C30.7901 30.5451 28.4659 33.0958 27.3006 35.3618C26.1093 37.6796 25.695 40.2498 25.5914 42.8265C25.5008 45.0342 27.2617 46.8729 29.4759 46.8729H32.6482C34.6682 46.8729 36.3385 45.3256 36.5198 43.3186C36.6493 41.8749 36.8888 40.7808 37.2514 40.0362C37.8599 38.7608 39.4331 37.0775 41.9581 34.9799C46.846 30.9335 50.0313 27.7353 51.5269 25.3787C53.0159 23.0286 53.7669 20.536 53.7669 17.901C53.7669 13.1425 51.7405 8.9667 47.6812 5.38002C43.6284 1.79334 38.1642 0 31.3016 0C24.7757 0 19.5122 1.76744 15.4982 5.30881C12.0798 8.32576 10.0016 11.8995 9.27005 16.0235C9.04339 17.2277 9.86561 18.3542 11.0633 18.5031Z" fill="#DD0707"/>
</svg>
