<svg width="51" height="51" viewBox="0 0 51 51" fill="none" xmlns="http://www.w3.org/2000/svg">
<path d="M13.3784 13.3813V16.5809C13.9387 16.26 14.2733 15.6925 14.3642 15.1526C14.4295 14.7631 14.4563 13.8353 13.3784 13.3813Z" fill="#0768F6"/>
<path d="M10.8569 9.1503C10.7774 9.57255 10.8781 9.96481 11.1136 10.1495C11.1966 10.2145 11.288 10.2785 11.3861 10.3413V8.2583C11.0822 8.49139 10.9146 8.8443 10.8569 9.1503Z" fill="#0768F6"/>
<path d="M12.4512 0C5.5856 0 0 5.5856 0 12.4512C0 19.3167 5.5856 24.9023 12.4512 24.9023C19.3167 24.9023 24.9023 19.3167 24.9023 12.4512C24.9023 5.5856 19.3167 0 12.4512 0ZM16.3289 15.4829C16.0945 16.8769 15.0336 18.2907 13.3785 18.7105V19.4238C13.3785 19.9739 12.9325 20.4199 12.3824 20.4199C11.8324 20.4199 11.3863 19.9739 11.3863 19.4238V18.8061C10.5821 18.7365 9.91542 18.5193 8.97032 17.901C8.50993 17.5999 8.38093 16.9825 8.68205 16.5221C8.98307 16.0618 9.60055 15.9325 10.0609 16.2338C10.5988 16.5857 10.9362 16.7383 11.3863 16.8016V12.595C10.7501 12.3035 10.2746 12.0229 9.88444 11.7168C9.05778 11.0684 8.68036 9.94361 8.8994 8.78106C9.13806 7.51423 10.0199 6.50629 11.2006 6.15068C11.2631 6.13185 11.325 6.11462 11.3863 6.09829V5.47852C11.3863 4.92847 11.8324 4.48242 12.3824 4.48242C12.9325 4.48242 13.3785 4.92847 13.3785 5.47852V5.98921C14.3456 6.15666 15.0292 6.63279 15.3603 7.0129C15.7216 7.42767 15.6782 8.0569 15.2634 8.41819C14.8509 8.77748 14.2262 8.73684 13.8638 8.32804C13.8411 8.30503 13.6828 8.15263 13.3785 8.04037V11.2589C13.5553 11.3246 13.732 11.3882 13.9055 11.4496C15.6564 12.0685 16.6303 13.6894 16.3289 15.4829Z" fill="#0768F6"/>
<path d="M49.7561 22.1344L44.5608 21.2521C43.9079 20.2371 43.1373 19.3016 42.2597 18.4586C42.7643 15.9346 44.1242 13.6895 46.1413 12.0758L46.4548 11.825C46.9504 11.4287 47.1414 10.7625 46.9314 10.1636C46.7213 9.56479 46.156 9.16406 45.5215 9.16406H41.5371C38.0115 9.16406 34.7851 11.1573 33.1667 14.2304C32.6303 14.1733 32.0985 14.1445 31.5762 14.1445H27.7974C26.9513 21.8642 20.3923 27.8906 12.4512 27.8906C8.11308 27.8906 4.18798 26.0916 1.38059 23.2012C0.477727 25.19 0 27.3641 0 29.584C0 34.3547 2.22029 38.854 5.97656 41.7736V49.5059C5.97656 50.331 6.64554 51 7.4707 51H13.4473C14.0903 51 14.6613 50.5884 14.8647 49.9783L16.5164 45.0234H30.4993L32.1509 49.9783C32.3543 50.5884 32.9253 51 33.5684 51H39.5449C40.3701 51 41.0391 50.331 41.0391 49.5059V41.7738C43.0937 40.1779 44.7007 38.1044 45.7347 35.7125L50.067 33.957C50.6309 33.7284 51 33.1808 51 32.5723V23.6074C51 22.8788 50.4745 22.2564 49.7561 22.1344ZM38.0508 25.5996C37.2256 25.5996 36.5566 24.9306 36.5566 24.1055C36.5566 23.2803 37.2256 22.6113 38.0508 22.6113C38.8759 22.6113 39.5449 23.2803 39.5449 24.1055C39.5449 24.9306 38.8759 25.5996 38.0508 25.5996Z" fill="#0768F6"/>
</svg>
