<svg width="63" height="63" viewBox="0 0 63 63" fill="none" xmlns="http://www.w3.org/2000/svg">
<g clip-path="url(#clip0)">
<path d="M55.3614 12.1318C56.2579 11.0366 56.7968 9.63789 56.7968 8.11543V6.35057C56.797 2.84878 53.9479 0 50.4464 0C46.9447 0 44.0957 2.84878 44.0957 6.35057V8.11556C44.0957 9.63802 44.6346 11.0367 45.5312 12.1319C41.2058 12.8524 37.8975 16.6188 37.8975 21.1456V23.839C37.8975 24.5184 38.4482 25.0692 39.1277 25.0692H61.7649C62.4443 25.0692 62.9951 24.5184 62.9951 23.839V21.1456C62.9952 16.6187 59.6867 12.8524 55.3614 12.1318ZM46.5563 6.35057C46.5563 4.20562 48.3013 2.46057 50.4464 2.46057C52.5915 2.46057 54.3364 4.20562 54.3364 6.35057V8.11556C54.3364 10.2605 52.5913 12.0056 50.4464 12.0056C48.3014 12.0056 46.5563 10.2605 46.5563 8.11556V6.35057ZM40.358 22.6085V21.1455C40.358 17.4626 43.3543 14.4661 47.0374 14.4661H53.8553C57.5382 14.4661 60.5346 17.4624 60.5346 21.1455V22.6085H40.358Z" fill="#2D715D"/>
<path d="M38.1433 8.01749H31.7458C31.0664 8.01749 30.5156 8.56824 30.5156 9.24771C30.5156 9.92717 31.0664 10.4779 31.7458 10.4779H38.1433C38.8228 10.4779 39.3735 9.92717 39.3735 9.24771C39.3736 8.56824 38.8228 8.01749 38.1433 8.01749Z" fill="#2D715D"/>
<path d="M27.2027 8.37814C26.9738 8.14927 26.6565 8.01761 26.3329 8.01761C26.0093 8.01761 25.6919 8.14927 25.4631 8.37814C25.2342 8.607 25.1025 8.92434 25.1025 9.24795C25.1025 9.57157 25.2342 9.8889 25.4631 10.1178C25.6919 10.3466 26.0093 10.4783 26.3329 10.4783C26.6565 10.4783 26.9738 10.3466 27.2027 10.1178C27.4314 9.8889 27.5632 9.57157 27.5632 9.24795C27.5632 8.92434 27.4316 8.60688 27.2027 8.37814Z" fill="#2D715D"/>
<path d="M34.74 52.5435H28.2605C27.581 52.5435 27.0303 53.0942 27.0303 53.7737C27.0303 54.4532 27.581 55.0039 28.2605 55.0039H34.74C35.4195 55.0039 35.9702 54.4532 35.9702 53.7737C35.9702 53.0942 35.4196 52.5435 34.74 52.5435Z" fill="#2D715D"/>
<path d="M9.23706 27.0407C8.55759 27.0407 8.00684 27.5914 8.00684 28.2709V34.6683C8.00684 35.3478 8.55759 35.8986 9.23706 35.8986C9.91652 35.8986 10.4673 35.3478 10.4673 34.6683V28.2709C10.4674 27.5914 9.91665 27.0407 9.23706 27.0407Z" fill="#2D715D"/>
<path d="M53.7791 27.0407C53.0996 27.0407 52.5488 27.5914 52.5488 28.2709V34.6683C52.5488 35.3478 53.0996 35.8986 53.7791 35.8986C54.4585 35.8986 55.0093 35.3478 55.0093 34.6683V28.2709C55.0093 27.5914 54.4585 27.0407 53.7791 27.0407Z" fill="#2D715D"/>
<path d="M17.4697 12.1318C18.3662 11.0366 18.9051 9.63789 18.9051 8.11543V6.35057C18.9052 2.84878 16.0563 0 12.5547 0C9.05313 0 6.20398 2.84878 6.20398 6.35057V8.11556C6.20398 9.63802 6.74292 11.0367 7.63944 12.1319C3.31422 12.8524 0.00585938 16.6187 0.00585938 21.1455V23.8389C0.00585938 24.5183 0.556617 25.0691 1.23608 25.0691H23.8733C24.5527 25.0691 25.1035 24.5183 25.1035 23.8389V21.1455C25.1036 16.6187 21.7951 12.8524 17.4697 12.1318ZM8.66454 6.35057C8.66454 4.20562 10.4096 2.46057 12.5547 2.46057C14.6997 2.46057 16.4447 4.20562 16.4447 6.35057V8.11556C16.4447 10.2605 14.6996 12.0056 12.5547 12.0056C10.4097 12.0056 8.66454 10.2605 8.66454 8.11556V6.35057ZM22.643 22.6085H2.46643V21.1455C2.46643 17.4626 5.46274 14.4661 9.14578 14.4661H15.9637C19.6466 14.4661 22.643 17.4624 22.643 21.1455V22.6085Z" fill="#2D715D"/>
<path d="M55.3614 50.0627C56.2579 48.9675 56.7968 47.5689 56.7968 46.0465V44.2815C56.7968 40.7797 53.9481 37.9309 50.4463 37.9309C46.9445 37.9309 44.0957 40.7797 44.0957 44.2815V46.0465C44.0957 47.5689 44.6346 48.9675 45.5312 50.0627C41.2058 50.7832 37.8975 54.5496 37.8975 59.0764V61.7698C37.8975 62.4492 38.4482 63 39.1277 63H61.7649C62.4443 63 62.9951 62.4492 62.9951 61.7698V59.0764C62.9952 54.5498 59.6867 50.7833 55.3614 50.0627ZM46.5563 44.2816C46.5563 42.1367 48.3013 40.3916 50.4463 40.3916C52.5912 40.3916 54.3363 42.1367 54.3363 44.2816V46.0466C54.3363 48.1916 52.5912 49.9366 50.4463 49.9366C48.3013 49.9366 46.5563 48.1916 46.5563 46.0466V44.2816ZM40.358 60.5394V59.0764C40.358 55.3935 43.3543 52.3971 47.0374 52.3971H53.8553C57.5382 52.3971 60.5346 55.3934 60.5346 59.0764V60.5394H40.358Z" fill="#2D715D"/>
<path d="M17.4697 50.0627C18.3662 48.9675 18.9051 47.5689 18.9051 46.0465V44.2815C18.9051 40.7797 16.0563 37.9309 12.5545 37.9309C9.05276 37.9309 6.20398 40.7798 6.20398 44.2816V46.0466C6.20398 47.5691 6.74292 48.9676 7.63944 50.0629C3.31422 50.7833 0.00585938 54.5498 0.00585938 59.0764V61.7698C0.00585938 62.4492 0.556617 63 1.23608 63H23.8733C24.5527 63 25.1035 62.4492 25.1035 61.7698V59.0764C25.1036 54.5498 21.7951 50.7833 17.4697 50.0627ZM8.66454 44.2816C8.66454 42.1367 10.4096 40.3916 12.5545 40.3916C14.6995 40.3916 16.4446 42.1367 16.4446 44.2816V46.0466C16.4446 48.1916 14.6995 49.9366 12.5545 49.9366C10.4096 49.9366 8.66454 48.1914 8.66454 46.0465V44.2816ZM22.643 60.5394H2.46643V59.0764C2.46643 55.3935 5.46274 52.3971 9.14578 52.3971H15.9637C19.6466 52.3971 22.643 55.3934 22.643 59.0764V60.5394Z" fill="#2D715D"/>
</g>
<defs>
<clipPath id="clip0">
<rect width="63" height="63" fill="white"/>
</clipPath>
</defs>
</svg>
