<svg width="63" height="63" viewBox="0 0 63 63" fill="none" xmlns="http://www.w3.org/2000/svg">
<path d="M62.9572 6.35842C63.2643 4.92876 61.8627 3.72328 60.4954 4.24499L1.18739 26.8854C0.473606 27.1579 0.00148002 27.8421 3.47329e-06 28.6061C-0.00147307 29.3702 0.467946 30.0562 1.18075 30.3314L17.8415 36.7661V57.0333C17.8415 57.8882 18.4286 58.6312 19.2603 58.8289C20.0866 59.0254 20.9482 58.6323 21.3355 57.8639L28.2262 44.19L45.0421 56.6697C46.065 57.4289 47.5353 56.9461 47.9075 55.7261C63.608 4.24905 62.9292 6.48774 62.9572 6.35842ZM48.3171 12.8451L19.4256 33.4207L6.99453 28.6197L48.3171 12.8451ZM21.5329 36.4517L46.7164 18.5169C25.0463 41.3776 26.1781 40.1743 26.0836 40.3016C25.9432 40.4904 26.3278 39.7542 21.5329 49.2694V36.4517ZM45.1402 52.1457L30.3383 41.1607L57.1021 12.9264L45.1402 52.1457Z" fill="#4E0598"/>
</svg>
